{"title":"Jis Jagah Pe (Players) - H.264 - 720p DVDRip ~~~AbhinavRocks {{-","uid":6929676,"size":48127058,"categoryP":"video","categoryS":"music_videos","magnet":"?xt=urn:btih:78ba1dec8d9dba68b203551bb0c8b47c2aaa6e0b&amp;dn=Jis+Jagah+Pe+%28Players%29+-+H.264+-+720p+DVDRip+%7E%7E%7EAbhinavRocks+%7B%7B-&amp;tr=udp%3A%2F%2Ftracker.openbittorrent.com%3A80&amp;tr=udp%3A%2F%2Fopen.demonii.com%3A1337&amp;tr=udp%3A%2F%2Ftracker.coppersurfer.tk%3A6969&amp;tr=udp%3A%2F%2Fexodus.desync.com%3A6969","seeders":1,"leechers":0,"uploader":"AbhiHKRG","files":6,"time":1325617342,"description":"COVER :: http://i.minus.com/iQqsERKgZ3GM7.png\n\nSCREEN :: \n &lt;a href=&quot;\nhttp://i.minus.com/ibcroLetuioMD0.png&quot; rel=&quot;nofollow&quot; target=&quot;_NEW&quot;&gt;\nhttp://i.minus.com/ibcroLetuioMD0.png&lt;/a&gt;\n &lt;a href=&quot;\nhttp://i.minus.com/iWA3mzFhAKFCb.png&quot; rel=&quot;nofollow&quot; target=&quot;_NEW&quot;&gt;\nhttp://i.minus.com/iWA3mzFhAKFCb.png&lt;/a&gt;\n &lt;a href=&quot;\nhttp://i.minus.com/iK9XLRpEF3IV3.png&quot; rel=&quot;nofollow&quot; target=&quot;_NEW&quot;&gt;\nhttp://i.minus.com/iK9XLRpEF3IV3.png&lt;/a&gt;\n &lt;a href=&quot;\nhttp://i.minus.com/iRmNaJgjqpTfo.png&quot; rel=&quot;nofollow&quot; target=&quot;_NEW&quot;&gt;\nhttp://i.minus.com/iRmNaJgjqpTfo.png&lt;/a&gt;\n &lt;a href=&quot;\nhttp://i.minus.com/ibw0meqqr4kxlO.png&quot; rel=&quot;nofollow&quot; target=&quot;_NEW&quot;&gt;\nhttp://i.minus.com/ibw0meqqr4kxlO.png&lt;/a&gt;\n &lt;a href=&quot;\nhttp://i.minus.com/iy400g2yy2Qn6.png&quot; rel=&quot;nofollow&quot; target=&quot;_NEW&quot;&gt;\nhttp://i.minus.com/iy400g2yy2Qn6.png&lt;/a&gt;\n\n\nINFO ::\n\nGeneral ::\nFormat                           : AVI\nFormat/Info                      : Audio Video Interleave\nFile size                        : 45.9 MiB\nDuration                         : 2mn 24s\nOverall bit rate                 : 2 657 Kbps\n\n\nVideo Info ::\nID                               : 0\nFormat                           : AVC\nFormat/Info                      : Advanced Video Codec\nFormat profile                   : &lt;a class=&quot;__cf_email__&quot; href=&quot;/cdn-cgi/l/email-protection&quot; data-cfemail=&quot;0840616f6048443d2639&quot;&gt;[email&amp;#160;protected]&lt;/a&gt;&lt;script cf-hash='f9e31' type=&quot;text/javascript&quot;&gt;\n/* &lt;![CDATA[ */!function(){try{var t=&quot;currentScript&quot;in document?document.currentScript:function(){for(var t=document.getElementsByTagName(&quot;script&quot;),e=t.length;e--;)if(t[e].getAttribute(&quot;cf-hash&quot;))return t[e]}();if(t&amp;&amp;t.previousSibling){var e,r,n,i,c=t.previousSibling,a=c.getAttribute(&quot;data-cfemail&quot;);if(a){for(e=&quot;&quot;,r=parseInt(a.substr(0,2),16),n=2;a.length-n;n+=2)i=parseInt(a.substr(n,2),16)^r,e+=String.fromCharCode(i);e=document.createTextNode(e),c.parentNode.replaceChild(e,c)}}}catch(u){}}();/* ]]&gt; */&lt;/script&gt;\nFormat settings, CABAC           : Yes\nFormat settings, ReFrames        : 2 frames\nCodec ID                         : H264\nDuration                         : 10s 0ms\nBit rate                         : 2 455 Kbps\nWidth                            : 1 280 pixels\nHeight                           : 544 pixels\nDisplay aspect ratio             : 2.35:1\nFrame rate                       : 30.000 fps\nColor space                      : YUV\nChroma subsampling               : 4:2:0\nBit depth                        : 8 bits\nScan type                        : Progressive\nBits/(Pixel*Frame)               : 0.118\nStream size                      : 42.4 MiB (92%)\n\n\nAudio Info ::\nID                               : 1\nFormat                           : MPEG Audio\nFormat version                   : Version 1\nFormat profile                   : Layer 3\nCodec ID                         : 55\nCodec ID/Hint                    : MP3\nDuration                         : 2mn 24s\nBit rate mode                    : Constant\nBit rate                         : 192 Kbps\nChannel(s)                       : 2 channels\nSampling rate                    : 44.1 KHz\nCompression mode                 : Lossy\nStream size                      : 3.32 MiB (7%)","torrent":{"xt":"urn:btih:78ba1dec8d9dba68b203551bb0c8b47c2aaa6e0b","amp;dn":"Jis+Jagah+Pe+%28Players%29+-+H.264+-+720p+DVDRip+%7E%7E%7EAbhinavRocks+%7B%7B-","amp;tr":["udp%3A%2F%2Ftracker.openbittorrent.com%3A80","udp%3A%2F%2Fopen.demonii.com%3A1337","udp%3A%2F%2Ftracker.coppersurfer.tk%3A6969","udp%3A%2F%2Fexodus.desync.com%3A6969"],"infoHash":"78ba1dec8d9dba68b203551bb0c8b47c2aaa6e0b","infoHashBuffer":{"type":"Buffer","data":[120,186,29,236,141,157,186,104,178,3,85,27,176,200,180,124,42,170,110,11]},"announce":[],"urlList":[]}}